<?xml version="1.0" encoding="UTF-8"?>
<svg xmlns="http://www.w3.org/2000/svg" xmlns:xlink="http://www.w3.org/1999/xlink" width="166px" height="63px" viewBox="0 0 166 63" version="1.1">
<g id="surface1">
<path style=" stroke:none;fill-rule:evenodd;fill:rgb(100%,60%,0%);fill-opacity:1;" d="M 102.976562 36.847656 C 93.367188 39.546875 79.390625 40.984375 67.332031 40.984375 C 50.441406 40.984375 35.296875 38.617188 23.765625 34.683594 C 22.890625 34.375 23.648438 33.953125 24.753906 34.195312 C 37.160156 36.9375 52.480469 38.574219 68.320312 38.574219 C 78.980469 38.574219 90.746094 37.734375 101.582031 35.988281 C 103.210938 35.746094 104.550781 36.40625 102.976562 36.847656 Z M 102.976562 36.847656 "/>
<path style=" stroke:none;fill-rule:evenodd;fill:rgb(100%,60%,0%);fill-opacity:1;" d="M 106.996094 35.101562 C 105.773438 34.507812 98.84375 34.816406 95.753906 34.96875 C 94.824219 35.015625 94.648438 34.707031 95.523438 34.484375 C 101.054688 33.003906 110.085938 33.445312 111.132812 33.929688 C 112.179688 34.417969 110.839844 37.867188 105.65625 39.503906 C 104.84375 39.746094 104.085938 39.613281 104.433594 39.28125 C 105.597656 38.175781 108.21875 35.722656 106.996094 35.101562 Z M 106.996094 35.101562 "/>
<path style=" stroke:none;fill-rule:evenodd;fill:rgb(0%,0%,0%);fill-opacity:1;" d="M 95.929688 24.09375 L 95.929688 22.65625 C 95.929688 22.4375 96.339844 22.304688 96.863281 22.304688 L 113.753906 22.304688 C 114.277344 22.304688 114.742188 22.457031 114.742188 22.65625 L 114.742188 23.875 C 114.742188 24.074219 114.277344 24.339844 113.460938 24.78125 L 104.726562 29.511719 C 107.988281 29.488281 111.425781 29.664062 114.335938 30.285156 C 114.976562 30.417969 115.152344 30.636719 115.210938 30.835938 L 115.210938 32.363281 C 115.210938 32.582031 114.628906 32.828125 113.988281 32.695312 C 108.804688 31.65625 101.871094 31.542969 96.164062 32.714844 C 95.582031 32.828125 94.941406 32.605469 94.941406 32.382812 L 94.941406 30.925781 C 94.941406 30.703125 94.941406 30.304688 95.582031 29.953125 L 105.714844 24.449219 L 96.921875 24.449219 C 96.398438 24.449219 95.929688 24.292969 95.929688 24.09375 Z M 34.363281 33.003906 L 29.238281 33.003906 C 28.773438 32.980469 28.367188 32.847656 28.308594 32.671875 L 28.308594 22.679688 C 28.308594 22.480469 28.773438 22.328125 29.296875 22.328125 L 34.074219 22.328125 C 34.597656 22.328125 34.949219 22.480469 35.003906 22.65625 L 35.003906 23.960938 L 35.121094 23.960938 C 36.34375 22.703125 38.734375 22.105469 41.878906 22.105469 C 45.082031 22.105469 47.121094 22.703125 48.519531 23.960938 C 49.742188 22.703125 52.597656 22.105469 55.625 22.105469 C 57.78125 22.105469 60.109375 22.4375 61.566406 23.210938 C 63.195312 24.050781 62.847656 25.265625 62.847656 26.347656 L 62.847656 32.671875 C 62.847656 32.871094 62.382812 33.023438 61.855469 33.023438 L 56.789062 33.023438 C 56.265625 33.003906 55.859375 32.847656 55.859375 32.671875 L 55.859375 27.367188 C 55.859375 26.945312 55.972656 25.886719 55.742188 25.488281 C 55.332031 24.824219 54.226562 24.625 52.710938 24.625 C 51.488281 24.625 50.148438 24.933594 49.625 25.441406 C 49.101562 25.953125 49.160156 26.792969 49.160156 27.367188 L 49.160156 32.671875 C 49.160156 32.871094 48.691406 33.023438 48.167969 33.023438 L 43.042969 33.023438 C 42.519531 33.003906 42.113281 32.847656 42.113281 32.671875 L 42.113281 27.367188 C 42.113281 26.261719 42.578125 24.601562 38.964844 24.601562 C 35.296875 24.601562 35.414062 26.195312 35.414062 27.367188 L 35.414062 32.671875 C 35.355469 32.847656 34.949219 33.003906 34.363281 33.003906 Z M 129.304688 22.105469 C 136.933594 22.105469 141.070312 24.582031 141.070312 27.742188 C 141.070312 30.792969 136.527344 33.222656 129.304688 33.222656 C 121.851562 33.222656 117.773438 30.75 117.773438 27.652344 C 117.714844 24.535156 121.851562 22.105469 129.304688 22.105469 Z M 129.304688 24.160156 C 125.519531 24.160156 125.285156 26.128906 125.285156 27.34375 C 125.285156 28.558594 125.226562 31.167969 129.246094 31.167969 C 133.207031 31.167969 133.441406 29.070312 133.441406 27.785156 C 133.441406 26.945312 133.324219 25.929688 132.683594 25.132812 C 132.101562 24.425781 130.9375 24.160156 129.304688 24.160156 Z M 150.914062 33.003906 L 145.789062 33.003906 C 145.265625 32.980469 144.855469 32.828125 144.855469 32.648438 L 144.855469 22.636719 C 144.914062 22.457031 145.324219 22.304688 145.847656 22.304688 L 150.625 22.304688 C 151.089844 22.304688 151.4375 22.4375 151.554688 22.589844 L 151.554688 24.117188 L 151.671875 24.117188 C 153.128906 22.746094 155.109375 22.105469 158.660156 22.105469 C 160.933594 22.105469 163.203125 22.414062 164.660156 23.277344 C 166 24.074219 166 25.421875 166 26.394531 L 166 32.695312 C 165.941406 32.871094 165.535156 33.003906 165.011719 33.003906 L 159.882812 33.003906 C 159.417969 32.980469 159.011719 32.847656 158.953125 32.695312 L 158.953125 27.253906 C 158.953125 26.152344 159.300781 24.558594 155.75 24.558594 C 154.527344 24.558594 153.359375 24.867188 152.777344 25.355469 C 152.078125 25.972656 151.960938 26.570312 151.960938 27.253906 L 151.960938 32.648438 C 151.90625 32.847656 151.4375 33.003906 150.914062 33.003906 Z M 82.476562 28.226562 C 82.476562 28.980469 82.535156 29.621094 81.542969 30.304688 C 80.726562 30.859375 79.445312 31.191406 77.992188 31.191406 C 76.011719 31.191406 74.84375 30.617188 74.84375 29.777344 C 74.84375 28.117188 78.75 27.808594 82.476562 27.808594 Z M 87.660156 32.980469 C 87.308594 33.089844 86.84375 33.113281 86.4375 33.023438 C 84.746094 32.496094 84.398438 32.230469 83.464844 31.722656 C 80.671875 32.804688 78.632812 33.136719 75.019531 33.136719 C 70.710938 33.136719 67.332031 32.117188 67.332031 30.105469 C 67.332031 28.515625 69.601562 27.453125 72.808594 26.925781 C 75.601562 26.460938 79.503906 26.371094 82.476562 26.238281 L 82.476562 25.996094 C 82.476562 25.53125 82.59375 24.980469 81.835938 24.582031 C 81.195312 24.226562 80.03125 24.074219 78.980469 24.074219 C 77 24.074219 75.253906 24.449219 74.84375 25.246094 C 74.730469 25.421875 74.4375 25.597656 73.972656 25.597656 L 69.019531 25.398438 C 68.613281 25.355469 68.148438 25.246094 68.265625 25 C 69.429688 22.703125 74.84375 22.015625 79.738281 22.015625 C 82.242188 22.015625 85.503906 22.261719 87.484375 22.988281 C 89.988281 23.875 89.757812 25.066406 89.757812 26.347656 L 89.757812 29.378906 C 89.757812 30.285156 90.746094 30.683594 91.679688 31.191406 C 92.027344 31.367188 92.085938 31.589844 91.679688 31.699219 C 90.570312 32.03125 88.707031 32.648438 87.660156 32.980469 Z M 15.203125 28.226562 C 15.203125 28.980469 15.261719 29.621094 14.269531 30.304688 C 13.453125 30.859375 12.171875 31.191406 10.71875 31.191406 C 8.738281 31.191406 7.570312 30.617188 7.570312 29.777344 C 7.570312 28.117188 11.472656 27.808594 15.203125 27.808594 Z M 20.328125 32.980469 C 19.976562 33.089844 19.511719 33.113281 19.105469 33.023438 C 17.414062 32.496094 17.066406 32.230469 16.132812 31.722656 C 13.339844 32.804688 11.300781 33.136719 7.6875 33.136719 C 3.378906 33.136719 0 32.117188 0 30.105469 C 0 28.515625 2.273438 27.453125 5.476562 26.925781 C 8.269531 26.460938 12.171875 26.371094 15.144531 26.238281 L 15.144531 25.996094 C 15.144531 25.53125 15.261719 24.980469 14.503906 24.582031 C 13.863281 24.226562 12.699219 24.074219 11.648438 24.074219 C 9.667969 24.074219 7.921875 24.449219 7.515625 25.246094 C 7.398438 25.421875 7.105469 25.597656 6.640625 25.597656 L 1.6875 25.398438 C 1.28125 25.355469 0.816406 25.246094 0.933594 25 C 2.097656 22.703125 7.515625 22.015625 12.40625 22.015625 C 14.910156 22.015625 18.171875 22.261719 20.152344 22.988281 C 22.65625 23.875 22.425781 25.066406 22.425781 26.347656 L 22.425781 29.378906 C 22.425781 30.285156 23.414062 30.683594 24.347656 31.191406 C 24.695312 31.367188 24.753906 31.589844 24.347656 31.699219 C 23.238281 32.03125 21.375 32.648438 20.328125 32.980469 Z M 20.328125 32.980469 "/>
</g>
</svg>
