<?xml version="1.0" encoding="UTF-8"?>
<svg xmlns="http://www.w3.org/2000/svg" xmlns:xlink="http://www.w3.org/1999/xlink" width="118px" height="69px" viewBox="0 0 118 69" version="1.1">
<g id="surface1">
<path style=" stroke:none;fill-rule:nonzero;fill:rgb(80%,2.745098%,11.764706%);fill-opacity:1;" d="M 82.886719 2.09375 C 87.171875 0.226562 89.292969 0.472656 89.339844 2.367188 C 89.398438 4.824219 88.988281 8.097656 88.695312 10.460938 C 87.101562 23.324219 84.449219 33.835938 84.246094 47.042969 C 91.246094 30.960938 97.109375 19.78125 104.667969 6.015625 C 107.066406 1.628906 108.601562 2.449219 110.570312 1.671875 C 118.242188 -1.363281 118.53125 0.496094 117.53125 4.207031 C 113.808594 17.949219 104.277344 61.21875 102.820312 67.882812 C 102.402344 69.808594 100.042969 68.992188 99.433594 68.238281 C 96.699219 64.882812 93.617188 64.832031 93.957031 62.601562 C 95.671875 51.492188 101.839844 23.621094 103.449219 17.054688 C 95.253906 31.972656 86.75 50.625 82.382812 61.199219 C 81.457031 63.445312 79.773438 63.277344 78.726562 61.636719 C 77.25 59.328125 74.382812 58.148438 73.910156 55.421875 C 72.414062 46.75 75.621094 30.222656 76.070312 19.765625 C 71.605469 31.1875 64.113281 53.367188 60.828125 63.382812 C 59.476562 67.53125 54.964844 66.855469 56.164062 62.8125 C 61.152344 46 71.898438 16.261719 76.546875 5.570312 C 77.640625 3.050781 80.507812 3.132812 82.886719 2.09375 "/>
<path style=" stroke:none;fill-rule:nonzero;fill:rgb(80%,2.745098%,11.764706%);fill-opacity:1;" d="M 55.675781 0.03125 C 54.230469 -0.28125 50.03125 1.730469 47.453125 2.128906 C 46.632812 2.253906 45.851562 3.023438 45.578125 3.574219 C 41.445312 12 37.742188 20.03125 34.535156 27.351562 C 30.429688 27.972656 25.632812 28.792969 20.261719 29.863281 C 24.109375 21.105469 27.992188 12.464844 31.78125 4.15625 C 33.648438 0.0664062 28.734375 -0.320312 26.832031 3.820312 C 24.355469 9.203125 19.71875 19.289062 14.589844 31.046875 C 10.820312 31.867188 6.820312 32.804688 2.640625 33.878906 C -0.394531 34.65625 -0.519531 35.375 0.792969 36.992188 C 1.515625 37.890625 3.011719 37.800781 3.699219 38.441406 C 5.46875 40.105469 6.542969 42.09375 9.714844 42.394531 C 6.886719 49.109375 4.058594 56.035156 1.5 62.699219 C -0.109375 66.886719 4.46875 67.742188 6.230469 63.3125 C 9.066406 56.175781 12.054688 48.949219 15.132812 41.746094 C 17.691406 41.214844 23.890625 40.03125 29.609375 38.929688 C 25.070312 49.980469 22.082031 58.371094 20.949219 62.457031 C 20.738281 63.242188 21.089844 63.675781 21.28125 63.996094 C 22.8125 65.976562 24.269531 66.058594 26.242188 68.507812 C 26.773438 69.175781 28.5625 69.535156 29.171875 67.890625 C 33.382812 56.609375 37.710938 46.019531 41.75 36.527344 C 43.425781 36.203125 46.441406 35.558594 48.289062 33.109375 C 51.574219 28.769531 52.515625 29.648438 53.308594 28.328125 C 54.296875 26.671875 53.640625 25.117188 50.136719 25.5 C 50.136719 25.5 48.8125 25.582031 46.367188 25.832031 C 50.25 16.953125 53.648438 9.421875 56.097656 3.683594 C 56.933594 1.738281 57.039062 0.320312 55.675781 0.03125 "/>
<path style=" stroke:none;fill-rule:nonzero;fill:rgb(80%,2.745098%,11.764706%);fill-opacity:1;" d="M 49.945312 57.617188 C 50.851562 59.644531 53.679688 59.03125 52.601562 56.582031 C 51.507812 54.085938 48.785156 46.578125 48.070312 44.15625 C 47.101562 40.894531 51.308594 41.789062 49.175781 43.917969 C 47.347656 45.753906 46.128906 46.488281 42.75 49.972656 C 39.484375 53.335938 40.371094 57.703125 43.863281 58.667969 C 47.804688 59.757812 51.28125 55.902344 53.429688 53.070312 C 55.515625 50.332031 53.496094 48.726562 51.394531 50.34375 C 50.042969 51.386719 48.480469 52.984375 46.898438 53.847656 C 45.613281 54.542969 44.605469 53.796875 46.320312 51.703125 C 48.308594 49.277344 50.535156 47.246094 52.191406 44.953125 C 55.574219 40.285156 48.890625 37.59375 46.015625 40.625 C 44.472656 42.242188 44.863281 43.832031 45.28125 45.191406 C 45.957031 47.375 48.472656 54.339844 49.945312 57.617188 "/>
</g>
</svg>
