<?xml version="1.0" encoding="UTF-8"?>
<svg xmlns="http://www.w3.org/2000/svg" xmlns:xlink="http://www.w3.org/1999/xlink" width="235px" height="69px" viewBox="0 0 235 69" version="1.1">
<g id="surface1">
<path style=" stroke:none;fill-rule:nonzero;fill:rgb(0%,0%,0%);fill-opacity:1;" d="M 221.136719 37.039062 L 221.136719 36.664062 L 219.371094 35.910156 L 218.960938 35.503906 L 218.960938 35.128906 L 217.492188 34.71875 L 213.851562 34.71875 L 211.734375 35.503906 L 210.265625 35.128906 L 209.5625 35.128906 L 208.796875 35.503906 L 209.5625 36.664062 L 213.144531 36.664062 L 215.320312 36.289062 L 216.023438 37.039062 L 217.492188 38.199219 L 219.667969 38.609375 L 221.839844 38.609375 L 229.769531 38.984375 L 231.238281 38.609375 L 229.066406 38.199219 L 222.546875 37.039062 Z M 221.136719 37.039062 "/>
<path style=" stroke:none;fill-rule:nonzero;fill:rgb(0%,0%,0%);fill-opacity:1;" d="M 82.015625 40.992188 C 88.300781 40.992188 93.824219 38.734375 93.824219 34.9375 C 93.824219 31.144531 88.300781 28.855469 82.015625 28.855469 C 75.730469 28.855469 70.207031 31.113281 70.207031 34.90625 C 70.207031 38.703125 75.789062 40.992188 82.015625 40.992188 M 41.652344 40.742188 L 46.234375 40.742188 L 35.71875 29.105469 L 31.371094 29.105469 L 21.679688 40.773438 L 25.734375 40.773438 L 27.847656 38.136719 L 39.363281 38.136719 Z M 154.863281 29.105469 L 138.296875 29.105469 L 138.296875 40.773438 L 155.21875 40.773438 L 155.21875 38.890625 L 142.175781 38.890625 L 142.175781 35.847656 L 153.277344 35.847656 L 153.277344 34 L 142.175781 34 L 142.175781 30.988281 L 154.863281 30.988281 Z M 96.820312 39.582031 C 97.703125 39.957031 100.34375 40.960938 105.046875 40.960938 C 109.746094 40.960938 113.5625 39.613281 113.5625 37.480469 C 113.5625 33.058594 101.519531 34.46875 101.519531 32.054688 C 101.519531 31.363281 102.578125 30.800781 105.339844 30.800781 C 108.6875 30.800781 110.800781 31.582031 111.683594 31.960938 L 113.269531 30.234375 C 112.269531 29.734375 109.214844 28.855469 105.339844 28.855469 C 99.523438 28.855469 97.113281 30.609375 97.113281 32.304688 C 97.113281 36.320312 109.15625 35.160156 109.15625 37.574219 C 109.15625 38.578125 107.277344 39.015625 105.105469 39.015625 C 101.8125 39.015625 99.230469 38.230469 98.113281 37.792969 Z M 58.808594 30.925781 C 62.097656 30.925781 63.921875 31.867188 64.976562 32.367188 L 67.679688 30.957031 C 66.796875 30.421875 64.214844 28.855469 58.75 28.855469 C 52.464844 28.855469 46.941406 31.113281 46.941406 34.90625 C 46.941406 38.703125 52.40625 40.960938 58.691406 40.960938 C 63.507812 40.960938 66.796875 39.582031 67.855469 39.078125 L 65.683594 37.449219 C 63.980469 38.230469 61.277344 38.890625 58.75 38.890625 C 54.402344 38.890625 51.171875 37.132812 51.171875 34.90625 C 51.171875 32.679688 54.460938 30.925781 58.808594 30.925781 M 82.015625 38.921875 C 77.667969 38.921875 74.4375 37.164062 74.4375 34.9375 C 74.4375 32.679688 77.726562 30.957031 82.015625 30.957031 C 86.363281 30.957031 89.59375 32.710938 89.59375 34.9375 C 89.59375 37.164062 86.363281 38.921875 82.015625 38.921875 M 123.375 30.957031 L 123.375 40.742188 L 127.253906 40.742188 L 127.253906 30.957031 L 134.890625 30.957031 L 134.890625 29.105469 L 115.914062 29.105469 L 115.914062 30.957031 Z M 7.402344 29.105469 L 3.523438 29.105469 L 3.523438 40.773438 L 18.976562 40.773438 L 18.976562 38.890625 L 7.402344 38.890625 Z M 33.429688 31.144531 L 37.835938 36.320312 L 29.257812 36.320312 Z M 33.429688 31.144531 "/>
<path style=" stroke:none;fill-rule:nonzero;fill:rgb(0%,0%,0%);fill-opacity:1;" d="M 231.003906 38.296875 C 230.535156 38.136719 230.125 38.105469 229.710938 38.042969 C 229.125 37.949219 228.949219 37.574219 228.714844 37.511719 C 228.300781 37.417969 227.890625 37.792969 227.597656 37.730469 C 227.304688 37.699219 227.246094 37.230469 227.011719 37.164062 C 226.597656 37.070312 226.128906 37.449219 225.894531 37.386719 C 225.660156 37.355469 225.484375 36.882812 225.246094 36.851562 C 224.835938 36.757812 224.367188 37.132812 224.074219 37.101562 C 223.835938 37.070312 223.71875 36.570312 223.542969 36.539062 C 223.074219 36.445312 222.664062 36.820312 222.25 36.789062 C 222.015625 36.757812 221.429688 36.726562 220.664062 36.445312 C 220.429688 36.382812 220.019531 36.164062 219.960938 36.164062 C 219.902344 36.132812 219.667969 36.132812 219.726562 36.320312 C 219.84375 36.820312 221.429688 37.164062 223.191406 37.449219 C 225.011719 37.730469 226.832031 37.980469 227.890625 38.261719 C 228.539062 38.421875 228.832031 38.640625 228.597656 38.828125 C 228.421875 38.984375 227.949219 38.984375 227.421875 38.859375 C 226.890625 38.734375 226.832031 38.484375 226.480469 38.453125 C 226.070312 38.390625 225.542969 38.828125 225.1875 38.765625 C 224.777344 38.703125 224.71875 38.230469 224.367188 38.167969 C 223.894531 38.105469 223.308594 38.515625 223.015625 38.484375 C 222.664062 38.453125 222.546875 37.917969 222.25 37.886719 C 221.722656 37.824219 221.195312 38.230469 220.839844 38.199219 C 220.488281 38.167969 220.3125 37.667969 220.078125 37.605469 C 219.546875 37.480469 218.84375 37.917969 218.140625 37.699219 C 215.789062 36.851562 216.257812 36.414062 214.496094 36.132812 C 213.554688 35.972656 212.441406 36.164062 211.734375 36.195312 C 210.148438 36.289062 210.207031 35.566406 210.207031 35.566406 C 210.675781 35.628906 211.324219 35.785156 212.5 35.535156 C 213.792969 35.285156 214.496094 35.253906 216.140625 35.535156 C 217.550781 35.785156 218.375 35.566406 218.84375 35.503906 C 219.078125 35.472656 219.253906 35.410156 219.726562 35.566406 C 220.195312 35.722656 220.605469 35.878906 220.839844 35.847656 C 221.195312 35.753906 221.078125 35.253906 221.664062 35.160156 C 221.957031 35.097656 222.664062 35.503906 223.015625 35.441406 C 223.367188 35.378906 223.25 34.84375 223.835938 34.75 C 224.132812 34.71875 224.835938 35.097656 225.1875 35.03125 C 225.542969 34.96875 225.421875 34.4375 226.011719 34.34375 C 226.304688 34.28125 227.011719 34.6875 227.363281 34.625 C 227.714844 34.5625 227.597656 34.03125 228.183594 33.933594 C 228.480469 33.871094 229.183594 34.28125 229.535156 34.21875 C 229.828125 34.15625 229.828125 34.03125 230.066406 33.652344 L 230.359375 33.464844 C 230.710938 33.308594 231.238281 32.964844 230.945312 32.585938 C 230.652344 32.242188 230.066406 32.242188 228.714844 32.398438 C 227.597656 32.523438 220.664062 33.339844 220.664062 33.339844 C 219.609375 32.273438 218.84375 32.964844 217.257812 32.867188 C 216.257812 32.804688 214.613281 32.242188 212.027344 33.527344 C 210.617188 33.308594 209.386719 33.496094 208.503906 33.777344 C 206.976562 33.433594 203.980469 32.617188 198.339844 32.617188 C 196.753906 32.617188 192.933594 32.773438 186.882812 33.621094 C 185.355469 33.839844 183.886719 33.808594 183.59375 33.308594 C 183.242188 32.804688 184.476562 32.242188 186.824219 31.644531 C 192.640625 30.171875 196.519531 30.515625 204.332031 28.289062 C 208.503906 27.097656 208.796875 25.71875 208.796875 25.375 C 208.796875 25.152344 208.386719 25.058594 208.09375 25.246094 C 206.683594 26.28125 206.328125 26.21875 205.859375 25.96875 C 205.273438 25.65625 204.859375 26.15625 204.273438 26.40625 C 203.804688 26.597656 203.6875 26.375 203.332031 26.25 C 202.6875 26.03125 202.101562 26.691406 201.570312 26.847656 C 200.925781 27.003906 200.808594 26.816406 200.574219 26.691406 C 200.394531 26.597656 200.160156 26.597656 199.925781 26.691406 C 198.574219 27.378906 198.398438 27.285156 197.988281 27.066406 C 197.695312 26.910156 197.515625 26.785156 196.695312 27.253906 C 196.226562 27.539062 195.34375 27.851562 195.109375 27.507812 C 194.875 27.160156 194.640625 26.972656 193.40625 27.570312 C 192.699219 27.914062 192.171875 27.945312 191.996094 27.789062 C 191.761719 27.632812 191.820312 27.160156 190.644531 27.632812 C 189.585938 28.070312 189.117188 28.320312 188.765625 27.914062 C 188.410156 27.507812 187.707031 27.851562 187.117188 28.132812 C 186.824219 28.289062 186.296875 28.636719 185.945312 28.289062 C 185.53125 27.914062 184.886719 28.289062 184.0625 28.761719 C 183.59375 29.011719 183.300781 28.917969 182.828125 28.730469 C 182.300781 28.539062 181.773438 29.261719 180.949219 29.671875 C 180.832031 29.734375 180.597656 29.796875 180.128906 29.605469 C 179.539062 29.386719 178.601562 30.515625 178.304688 30.800781 C 177.835938 31.238281 177.367188 30.671875 176.894531 31.082031 C 175.722656 32.023438 174.429688 33.058594 174.078125 34.875 C 173.664062 37.070312 175.191406 38.859375 176.71875 39.519531 C 176.71875 39.519531 176.542969 39.769531 176.308594 40.082031 C 175.898438 40.710938 175.722656 41.492188 176.25 42.058594 C 176.777344 42.59375 178.070312 43.5 178.484375 42.65625 C 178.71875 42.246094 178.953125 42.246094 179.65625 42.558594 C 180.773438 43 180.539062 42.214844 180.714844 41.964844 C 180.890625 41.808594 181.066406 41.746094 182.007812 42.058594 C 182.535156 42.246094 182.710938 41.996094 182.890625 41.652344 C 183.359375 40.554688 182.417969 40.300781 181.480469 40.175781 C 180.773438 40.113281 180.070312 40.175781 180.070312 40.175781 C 181.597656 38.921875 181.773438 38.261719 180.070312 37.636719 C 180.304688 37.574219 180.539062 37.605469 180.773438 37.667969 C 181.183594 37.761719 181.539062 37.949219 181.773438 38.136719 C 182.007812 38.359375 182.417969 38.859375 181.597656 39.738281 C 181.949219 39.738281 183.183594 39.769531 183.769531 40.460938 C 184.535156 40.585938 189.351562 40.804688 191.464844 40.617188 C 192.230469 40.554688 192.582031 40.175781 193.347656 39.800781 C 194.167969 39.394531 195.167969 38.921875 196.046875 39.265625 C 194.578125 39.582031 193.523438 40.207031 193.523438 40.992188 C 193.523438 41.589844 193.992188 41.808594 194.757812 42.152344 C 195.460938 42.464844 195.695312 42.96875 195.929688 43.34375 C 196.285156 43.847656 196.929688 43.847656 197.105469 43.375 C 197.339844 42.71875 197.695312 42.84375 198.164062 43.125 C 198.75 43.46875 199.164062 43.40625 199.164062 42.9375 C 199.164062 42.464844 199.398438 42.246094 200.394531 42.78125 C 200.808594 43 201.277344 43 201.21875 42.527344 C 201.21875 41.964844 201.6875 42.027344 202.277344 42.246094 C 202.511719 42.339844 202.628906 42.402344 202.746094 42.402344 C 203.214844 42.402344 203.511719 41.902344 203.15625 41.527344 C 202.980469 41.335938 202.6875 41.054688 200.277344 40.773438 C 199.457031 40.679688 199.632812 40.394531 199.632812 40.394531 C 205.566406 40.554688 210.617188 40.144531 213.96875 39.078125 C 218.019531 39.613281 224.015625 39.644531 226.011719 39.644531 C 227.949219 39.644531 229.476562 39.582031 230.710938 39.265625 C 231.828125 38.984375 231.59375 38.484375 231.003906 38.296875 M 218.667969 33.339844 C 218.785156 33.183594 219.019531 33.058594 219.253906 33.058594 C 219.726562 33.058594 219.902344 33.308594 219.902344 33.402344 L 218.785156 33.527344 C 218.550781 33.558594 218.550781 33.464844 218.667969 33.339844 M 215.847656 33.277344 C 216.609375 33.277344 217.082031 33.589844 217.140625 33.714844 C 217.140625 33.714844 215.964844 33.839844 215.496094 33.902344 C 215.203125 33.933594 214.964844 33.871094 214.90625 33.746094 C 214.90625 33.589844 215.203125 33.277344 215.847656 33.277344 M 184.238281 29.542969 C 184.769531 29.417969 185.296875 29.324219 185.886719 29.261719 L 186.0625 29.324219 C 185.945312 29.511719 185.886719 29.734375 185.828125 29.953125 L 185.648438 30.015625 C 185.238281 29.890625 184.769531 29.796875 184.296875 29.671875 L 184.296875 29.542969 M 181.773438 30.171875 C 182.300781 30.046875 182.828125 29.953125 183.417969 29.890625 L 183.59375 29.953125 C 183.476562 30.140625 183.417969 30.359375 183.359375 30.546875 L 183.183594 30.609375 C 182.769531 30.484375 182.300781 30.390625 181.832031 30.265625 L 181.773438 30.171875 M 182.828125 31.550781 L 183.007812 31.613281 C 182.890625 31.800781 182.828125 32.023438 182.710938 32.242188 L 182.535156 32.304688 C 182.125 32.179688 181.65625 32.085938 181.183594 31.960938 L 181.183594 31.867188 C 181.714844 31.707031 182.242188 31.613281 182.828125 31.550781 M 181.773438 32.710938 C 181.65625 32.902344 181.597656 33.121094 181.480469 33.339844 L 181.300781 33.402344 C 180.890625 33.277344 180.421875 33.183594 179.953125 33.058594 L 179.953125 32.933594 C 180.480469 32.804688 181.007812 32.710938 181.597656 32.648438 L 181.773438 32.710938 M 179.539062 30.988281 C 180.070312 30.863281 180.597656 30.769531 181.183594 30.703125 L 181.359375 30.769531 C 181.242188 30.957031 181.183594 31.175781 181.125 31.394531 L 180.949219 31.457031 C 180.539062 31.363281 180.070312 31.238281 179.597656 31.113281 L 179.597656 30.988281 M 177.777344 32.023438 C 178.304688 31.898438 178.835938 31.800781 179.421875 31.738281 L 179.597656 31.800781 C 179.480469 31.992188 179.421875 32.210938 179.363281 32.429688 L 179.1875 32.492188 C 178.777344 32.367188 178.304688 32.273438 177.835938 32.148438 L 177.835938 32.023438 M 177.132812 33.246094 C 177.660156 33.121094 178.1875 33.027344 178.777344 32.964844 L 178.953125 33.027344 C 178.835938 33.214844 178.777344 33.433594 178.71875 33.621094 L 178.542969 33.683594 C 178.128906 33.589844 177.660156 33.464844 177.191406 33.339844 L 177.191406 33.246094 M 177.425781 34.5625 L 177.425781 34.46875 C 177.953125 34.34375 178.484375 34.25 179.070312 34.1875 L 179.246094 34.25 C 179.128906 34.4375 179.070312 34.65625 179.011719 34.875 L 178.835938 34.9375 C 178.363281 34.8125 177.894531 34.6875 177.425781 34.5625 M 180.363281 36.035156 L 180.1875 36.097656 C 179.773438 35.972656 179.304688 35.878906 178.835938 35.753906 L 178.835938 35.660156 C 179.363281 35.535156 179.890625 35.441406 180.480469 35.378906 L 180.65625 35.441406 C 180.539062 35.628906 180.480469 35.816406 180.363281 36.035156 M 180.246094 34.21875 L 180.246094 34.125 C 180.773438 34 181.300781 33.902344 181.890625 33.839844 L 182.066406 33.902344 C 181.949219 34.09375 181.890625 34.3125 181.832031 34.53125 L 181.65625 34.59375 C 181.183594 34.46875 180.714844 34.34375 180.246094 34.21875 M 182.828125 36.726562 L 182.652344 36.789062 C 182.242188 36.664062 181.773438 36.570312 181.300781 36.445312 L 181.300781 36.351562 C 181.832031 36.226562 182.359375 36.132812 182.949219 36.066406 L 183.125 36.132812 C 183.007812 36.289062 182.890625 36.507812 182.828125 36.726562 M 183.359375 35.441406 L 183.183594 35.503906 C 182.769531 35.378906 182.300781 35.285156 181.832031 35.160156 L 181.832031 35.066406 C 182.359375 34.9375 182.890625 34.84375 183.476562 34.78125 L 183.652344 34.84375 C 183.535156 35 183.417969 35.222656 183.359375 35.441406 M 185.828125 36.066406 C 185.707031 36.257812 185.648438 36.476562 185.589844 36.695312 L 185.414062 36.757812 C 185.003906 36.632812 184.535156 36.539062 184.0625 36.414062 L 184.0625 36.320312 C 184.59375 36.195312 185.121094 36.097656 185.707031 36.035156 L 185.828125 36.066406 M 185.945312 35.378906 C 185.53125 35.285156 185.0625 35.160156 184.59375 35.03125 L 184.59375 34.9375 C 185.121094 34.8125 185.648438 34.71875 186.238281 34.65625 L 186.414062 34.71875 C 186.296875 34.90625 186.238281 35.128906 186.179688 35.316406 L 185.945312 35.378906 M 188.058594 37.007812 C 187.941406 37.199219 187.882812 37.417969 187.824219 37.605469 L 187.648438 37.667969 C 187.234375 37.542969 186.765625 37.449219 186.296875 37.324219 L 186.296875 37.230469 C 186.824219 37.101562 187.355469 37.007812 187.941406 36.945312 L 188.058594 37.007812 M 188.585938 35.691406 C 188.46875 35.878906 188.410156 36.097656 188.292969 36.320312 L 188.117188 36.382812 C 187.707031 36.257812 187.234375 36.164062 186.765625 36.035156 L 186.765625 35.941406 C 187.296875 35.816406 187.824219 35.722656 188.410156 35.660156 L 188.585938 35.691406 M 188.941406 34.90625 L 188.765625 34.96875 C 188.351562 34.875 187.882812 34.75 187.414062 34.625 L 187.414062 34.53125 C 187.941406 34.40625 188.46875 34.3125 189.058594 34.25 L 189.234375 34.3125 C 189.058594 34.5 189 34.6875 188.941406 34.90625 M 190.585938 37.199219 L 190.410156 37.261719 C 189.996094 37.132812 189.527344 37.039062 189.058594 36.914062 L 189.058594 36.820312 C 189.585938 36.695312 190.113281 36.601562 190.703125 36.539062 L 190.878906 36.601562 C 190.761719 36.757812 190.703125 36.976562 190.585938 37.199219 M 191.171875 35.910156 L 190.996094 35.972656 C 190.585938 35.847656 190.113281 35.753906 189.644531 35.628906 L 189.644531 35.535156 C 190.171875 35.410156 190.703125 35.316406 191.289062 35.253906 L 191.464844 35.316406 C 191.289062 35.503906 191.230469 35.691406 191.171875 35.910156 M 191.523438 34.625 C 191.113281 34.53125 190.644531 34.40625 190.171875 34.28125 L 190.171875 34.1875 C 190.703125 34.0625 191.230469 33.96875 191.820312 33.902344 L 191.996094 33.96875 C 191.878906 34.15625 191.820312 34.375 191.761719 34.59375 L 191.523438 34.625 M 193.757812 36.257812 C 193.640625 36.445312 193.582031 36.664062 193.464844 36.882812 L 193.289062 36.945312 C 192.875 36.820312 192.40625 36.726562 191.9375 36.601562 L 191.9375 36.507812 C 192.464844 36.382812 192.992188 36.289062 193.582031 36.226562 L 193.757812 36.257812 M 194.285156 34.96875 C 194.167969 35.160156 194.109375 35.378906 194.050781 35.597656 L 193.875 35.660156 C 193.464844 35.535156 192.992188 35.441406 192.523438 35.316406 L 192.523438 35.222656 C 193.050781 35.097656 193.582031 35 194.167969 34.9375 L 194.285156 34.96875 M 194.34375 34.34375 C 193.933594 34.25 193.464844 34.125 192.992188 34 L 192.992188 33.902344 C 193.523438 33.777344 194.050781 33.683594 194.640625 33.621094 L 194.816406 33.683594 C 194.699219 33.871094 194.640625 34.09375 194.519531 34.28125 L 194.34375 34.34375 M 196.519531 36.097656 C 196.460938 36.289062 196.34375 36.507812 196.285156 36.726562 L 196.109375 36.789062 C 195.695312 36.664062 195.226562 36.570312 194.757812 36.445312 L 194.757812 36.351562 C 195.285156 36.226562 195.8125 36.097656 196.402344 36.066406 L 196.519531 36.097656 M 197.046875 34.8125 C 196.929688 35 196.871094 35.222656 196.8125 35.441406 L 196.636719 35.503906 C 196.226562 35.378906 195.753906 35.285156 195.285156 35.160156 L 195.285156 35.066406 C 195.8125 34.9375 196.34375 34.84375 196.929688 34.78125 L 197.046875 34.8125 M 197.339844 34.1875 L 197.164062 34.25 C 196.753906 34.125 196.285156 34.03125 195.8125 33.902344 L 195.8125 33.808594 C 196.34375 33.683594 196.871094 33.589844 197.457031 33.527344 L 197.636719 33.589844 C 197.515625 33.777344 197.398438 33.96875 197.339844 34.1875 M 199.339844 36.164062 C 199.222656 36.351562 199.164062 36.570312 199.046875 36.757812 L 198.867188 36.820312 C 198.457031 36.695312 197.988281 36.601562 197.515625 36.476562 L 197.515625 36.382812 C 198.046875 36.257812 198.574219 36.164062 199.164062 36.097656 L 199.339844 36.164062 M 199.867188 34.875 C 199.75 35.066406 199.691406 35.285156 199.574219 35.503906 L 199.398438 35.566406 C 198.984375 35.441406 198.515625 35.347656 198.046875 35.222656 L 198.046875 35.128906 C 198.574219 35 199.105469 34.90625 199.691406 34.84375 L 199.867188 34.875 M 200.394531 33.589844 C 200.277344 33.777344 200.21875 34 200.101562 34.21875 L 199.925781 34.28125 C 199.515625 34.15625 199.046875 34.0625 198.574219 33.933594 L 198.574219 33.839844 C 199.105469 33.714844 199.632812 33.621094 200.21875 33.558594 L 200.394531 33.589844 M 202.277344 35.753906 L 202.101562 35.816406 C 201.6875 35.691406 201.21875 35.597656 200.75 35.472656 L 200.75 35.378906 C 201.277344 35.253906 201.804688 35.160156 202.394531 35.097656 L 202.570312 35.160156 C 202.453125 35.347656 202.335938 35.535156 202.277344 35.753906 M 203.039062 33.839844 C 202.980469 34.03125 202.863281 34.25 202.804688 34.46875 L 202.628906 34.53125 C 202.21875 34.40625 201.746094 34.3125 201.277344 34.1875 L 201.277344 34.09375 C 201.804688 33.96875 202.335938 33.871094 202.921875 33.808594 L 203.039062 33.839844 M 205.625 34.3125 C 205.566406 34.5 205.449219 34.71875 205.390625 34.9375 L 205.214844 35 C 204.800781 34.90625 204.332031 34.78125 203.863281 34.65625 L 203.863281 34.5625 C 204.390625 34.4375 204.921875 34.34375 205.507812 34.28125 L 205.625 34.3125 "/>
</g>
</svg>
