<?xml version="1.0" encoding="UTF-8"?>
<svg xmlns="http://www.w3.org/2000/svg" xmlns:xlink="http://www.w3.org/1999/xlink" width="70px" height="70px" viewBox="0 0 70 70" version="1.1">
<g id="surface1">
<path style=" stroke:none;fill-rule:nonzero;fill:rgb(64.705882%,2.745098%,8.627451%);fill-opacity:1;" d="M 41.84375 45.105469 C 38.605469 45.929688 36.476562 46.753906 35.070312 47.527344 C 30.671875 45.542969 25.878906 44.476562 21.285156 44.476562 C 15.625 44.476562 10.496094 45.929688 6.144531 48.011719 L 0 17.871094 L 41.84375 17.871094 M 12.480469 25.417969 L 8.757812 25.417969 L 8.757812 36.449219 L 16.203125 36.449219 L 16.203125 33.835938 L 12.480469 33.835938 Z M 22.6875 34.753906 C 20.996094 34.753906 20.609375 34.027344 20.609375 31.996094 L 28.203125 31.996094 C 28.203125 27.113281 27.042969 25.078125 22.6875 25.078125 C 17.949219 25.078125 16.691406 26.722656 16.691406 30.980469 C 16.691406 35.140625 18.433594 37.125 22.449219 37.125 C 26.414062 37.125 27.867188 35.671875 27.960938 33.398438 L 24.480469 33.398438 C 24.476562 34.320312 24.140625 34.753906 22.6875 34.753906 Z M 20.609375 29.820312 C 20.609375 28.175781 20.945312 27.257812 22.542969 27.257812 C 24.09375 27.257812 24.476562 27.984375 24.476562 29.820312 Z M 32.363281 25.417969 L 28.300781 25.417969 L 32.507812 36.449219 L 37.105469 36.449219 L 41.410156 25.417969 L 37.441406 25.417969 L 34.878906 32.625 Z M 32.363281 25.417969 "/>
<path style=" stroke:none;fill-rule:nonzero;fill:rgb(64.705882%,2.745098%,8.627451%);fill-opacity:1;" d="M 41.796875 17.871094 L 70 17.871094 L 63.371094 48.011719 C 59.019531 45.492188 55.050781 44.429688 49.292969 44.429688 C 46.148438 44.429688 44.023438 44.71875 41.796875 45.105469 M 42.472656 25.371094 L 42.472656 36.449219 L 46.101562 36.449219 L 46.101562 25.371094 Z M 48.859375 26.097656 L 48.664062 27.207031 C 49.828125 26.480469 50.308594 25.851562 50.308594 25.03125 C 50.308594 24.113281 49.679688 23.628906 48.761719 23.628906 C 47.84375 23.628906 47.261719 24.160156 47.261719 24.933594 C 47.261719 25.949219 47.941406 26.097656 48.859375 26.097656 Z M 54.035156 32.964844 L 50.117188 32.964844 C 50.164062 35.625 51.566406 36.6875 55.824219 36.6875 C 59.792969 36.6875 61.386719 35.816406 61.386719 33.0625 C 61.386719 28.707031 54.035156 30.882812 54.035156 28.273438 C 54.035156 27.644531 54.761719 27.109375 55.726562 27.109375 C 56.746094 27.109375 57.132812 27.546875 57.375 28.464844 L 61.097656 28.464844 C 61.050781 26.144531 59.695312 25.078125 55.96875 25.078125 C 52.101562 25.078125 50.308594 26.144531 50.308594 28.5625 C 50.308594 33.351562 57.664062 30.789062 57.664062 33.496094 C 57.664062 34.320312 57.226562 34.707031 56.164062 34.707031 C 54.90625 34.707031 54.132812 34.222656 54.035156 32.964844 Z M 57.035156 47.863281 C 58.195312 47.863281 59.164062 48.832031 59.164062 49.992188 C 59.164062 51.152344 58.195312 52.121094 57.035156 52.121094 C 55.875 52.121094 54.90625 51.203125 54.90625 49.992188 C 54.917969 48.820312 55.863281 47.875 57.035156 47.863281 Z M 58.824219 49.992188 C 58.824219 49.027344 58.050781 48.25 57.035156 48.25 C 56.019531 48.25 55.246094 49.027344 55.246094 49.992188 C 55.246094 50.960938 56.066406 51.78125 57.035156 51.78125 C 57.507812 51.785156 57.964844 51.597656 58.300781 51.261719 C 58.636719 50.925781 58.824219 50.46875 58.824219 49.992188 Z M 56.308594 51.058594 L 56.308594 48.929688 L 56.886719 48.929688 C 57.46875 48.929688 57.90625 49.074219 57.90625 49.605469 C 57.90625 49.847656 57.761719 50.042969 57.421875 50.234375 L 57.808594 51.058594 L 57.421875 51.058594 L 57.082031 50.429688 L 56.746094 50.429688 L 56.746094 51.058594 Z M 57.421875 49.605469 C 57.421875 49.460938 57.226562 49.363281 56.746094 49.363281 L 56.746094 49.894531 C 57.082031 49.894531 57.421875 49.894531 57.421875 49.605469 Z M 57.421875 49.605469 "/>
</g>
</svg>
