<?xml version="1.0" encoding="UTF-8"?>
<svg xmlns="http://www.w3.org/2000/svg" xmlns:xlink="http://www.w3.org/1999/xlink" width="150px" height="52px" viewBox="0 0 150 52" version="1.1">
<g id="surface1">
<path style=" stroke:none;fill-rule:nonzero;fill:rgb(0%,0%,0%);fill-opacity:1;" d="M 24.21875 16.929688 C 38.246094 16.929688 41.519531 21.71875 39.554688 25.996094 C 37.582031 30.277344 29.875 35.070312 15.851562 35.070312 C 1.828125 35.070312 -1.449219 30.277344 0.523438 25.996094 C 2.5 21.71875 10.195312 16.929688 24.21875 16.929688 Z M 17.886719 30.644531 C 23.109375 30.644531 24.953125 27.089844 25.460938 25.996094 C 25.964844 24.90625 27.402344 21.347656 22.1875 21.347656 C 16.960938 21.347656 15.125 24.90625 14.617188 25.996094 C 14.113281 27.089844 12.671875 30.644531 17.886719 30.644531 Z M 46.839844 17.230469 L 63.097656 17.230469 C 71.222656 17.230469 80.160156 18.441406 78.410156 22.230469 C 77.496094 24.203125 73.058594 25.742188 67.234375 25.742188 L 67.210938 25.789062 C 73.894531 25.976562 76.828125 27.414062 75.746094 29.765625 C 74.746094 31.925781 69.640625 34.765625 57.316406 34.765625 L 38.75 34.765625 Z M 55.476562 30.972656 C 58.523438 30.972656 61.464844 30.460938 62.019531 29.277344 C 62.5625 28.089844 60.144531 27.601562 56.960938 27.601562 L 55.875 27.601562 L 54.316406 30.972656 Z M 58.332031 24.046875 C 61.171875 24.046875 64.003906 23.652344 64.523438 22.511719 C 65.011719 21.460938 63.113281 21.023438 60.261719 21.023438 L 58.910156 21.023438 L 57.519531 24.046875 Z M 84.769531 17.230469 L 110.449219 17.230469 L 108.535156 21.367188 L 96.683594 21.367188 L 95.558594 23.8125 L 106.199219 23.8125 L 104.285156 27.949219 L 93.648438 27.949219 L 92.425781 30.625 L 104.269531 30.625 L 102.355469 34.765625 L 76.683594 34.765625 Z M 116.164062 34.765625 L 119.597656 27.320312 L 111.652344 17.230469 L 126.007812 17.230469 L 128.261719 22.648438 L 128.394531 22.648438 L 135.703125 17.230469 L 150 17.230469 L 133.410156 27.320312 L 129.984375 34.765625 Z M 144.457031 34.242188 C 143.453125 34.589844 142.25 34.765625 140.824219 34.765625 C 139.410156 34.765625 138.203125 34.589844 137.210938 34.242188 C 136.21875 33.898438 135.726562 33.476562 135.726562 32.984375 C 135.726562 32.5 136.222656 32.082031 137.222656 31.734375 C 138.21875 31.390625 139.421875 31.21875 140.824219 31.21875 C 142.25 31.21875 143.453125 31.390625 144.457031 31.734375 C 145.457031 32.078125 145.957031 32.496094 145.957031 32.984375 C 145.957031 33.476562 145.457031 33.894531 144.457031 34.242188 Z M 137.714844 31.910156 C 136.855469 32.207031 136.425781 32.566406 136.425781 32.988281 C 136.425781 33.414062 136.851562 33.773438 137.707031 34.074219 C 138.566406 34.371094 139.609375 34.519531 140.835938 34.519531 C 142.0625 34.519531 143.105469 34.371094 143.964844 34.074219 C 144.820312 33.773438 145.253906 33.414062 145.253906 32.988281 C 145.253906 32.566406 144.820312 32.207031 143.964844 31.910156 C 143.101562 31.609375 142.058594 31.460938 140.835938 31.460938 C 139.617188 31.460938 138.578125 31.609375 137.714844 31.910156 Z M 140.734375 32.003906 C 141.433594 32.003906 141.945312 32.023438 142.273438 32.074219 C 142.851562 32.15625 143.144531 32.320312 143.144531 32.566406 C 143.144531 32.742188 142.960938 32.871094 142.59375 32.949219 C 142.398438 32.996094 142.132812 33.027344 141.78125 33.042969 C 142.21875 33.070312 142.535156 33.132812 142.742188 33.238281 C 142.9375 33.339844 143.039062 33.441406 143.039062 33.539062 L 143.039062 33.679688 C 143.039062 33.726562 143.042969 33.773438 143.050781 33.828125 C 143.066406 33.878906 143.082031 33.914062 143.105469 33.929688 L 143.144531 33.953125 L 142.203125 33.953125 C 142.199219 33.945312 142.195312 33.941406 142.1875 33.933594 C 142.1875 33.925781 142.179688 33.917969 142.175781 33.910156 L 142.152344 33.847656 L 142.152344 33.695312 C 142.152344 33.46875 141.976562 33.320312 141.621094 33.246094 C 141.410156 33.207031 141.046875 33.183594 140.515625 33.183594 L 139.734375 33.183594 L 139.734375 33.953125 L 138.769531 33.953125 L 138.769531 32.003906 Z M 141.800781 32.320312 C 141.550781 32.269531 141.144531 32.246094 140.589844 32.246094 L 139.734375 32.246094 L 139.734375 32.941406 L 140.636719 32.941406 C 141.0625 32.941406 141.382812 32.925781 141.59375 32.898438 C 141.984375 32.847656 142.179688 32.746094 142.179688 32.597656 C 142.179688 32.457031 142.054688 32.367188 141.800781 32.320312 Z M 141.800781 32.320312 "/>
</g>
</svg>
