<?xml version="1.0" encoding="UTF-8"?>
<svg xmlns="http://www.w3.org/2000/svg" xmlns:xlink="http://www.w3.org/1999/xlink" width="176px" height="88px" viewBox="0 0 176 88" version="1.1">
<g id="surface1">
<path style=" stroke:none;fill-rule:nonzero;fill:rgb(58.431373%,74.901961%,27.843137%);fill-opacity:1;" d="M 54.371094 28.105469 C 54.335938 27.875 54.144531 27.699219 53.914062 27.675781 C 53.730469 27.648438 49.703125 27.371094 49.703125 27.371094 L 46.632812 24.300781 C 46.359375 23.992188 45.746094 24.082031 45.511719 24.148438 C 45.484375 24.148438 44.902344 24.332031 43.949219 24.640625 C 43.023438 21.960938 41.382812 19.503906 38.496094 19.503906 L 38.25 19.503906 C 37.421875 18.433594 36.410156 17.9375 35.550781 17.9375 C 28.828125 17.96875 25.621094 26.355469 24.609375 30.640625 L 19.910156 32.082031 C 18.46875 32.539062 18.414062 32.574219 18.222656 33.949219 L 14.261719 64.503906 L 43.957031 70.0625 L 60.054688 66.59375 C 60.054688 66.5625 54.402344 28.402344 54.375 28.109375 Z M 42.300781 25.15625 C 41.554688 25.402344 40.6875 25.648438 39.785156 25.925781 L 39.785156 25.375 C 39.8125 23.992188 39.605469 22.617188 39.171875 21.300781 C 40.675781 21.535156 41.6875 23.222656 42.300781 25.15625 Z M 37.359375 21.65625 C 37.851562 23.105469 38.09375 24.628906 38.03125 26.160156 L 38.03125 26.433594 L 32.839844 28.046875 C 33.855469 24.253906 35.726562 22.378906 37.355469 21.671875 Z M 35.363281 19.789062 C 35.671875 19.796875 35.96875 19.890625 36.222656 20.066406 C 34.058594 21.074219 31.769531 23.621094 30.785156 28.71875 L 26.679688 29.976562 C 27.835938 26.109375 30.539062 19.78125 35.363281 19.78125 Z M 35.363281 19.789062 "/>
<path style=" stroke:none;fill-rule:nonzero;fill:rgb(36.862745%,55.686275%,24.313725%);fill-opacity:1;" d="M 53.914062 27.675781 C 53.730469 27.648438 49.707031 27.367188 49.707031 27.367188 L 46.636719 24.296875 C 46.523438 24.179688 46.367188 24.117188 46.207031 24.113281 L 43.964844 70.058594 L 60.058594 66.585938 L 54.375 28.132812 C 54.335938 27.898438 54.152344 27.710938 53.917969 27.675781 Z M 53.914062 27.675781 "/>
<path style=" stroke:none;fill-rule:nonzero;fill:rgb(100%,100%,100%);fill-opacity:1;" d="M 38.492188 36.582031 L 36.496094 42.476562 C 35.289062 41.890625 33.96875 41.578125 32.628906 41.554688 C 29.492188 41.554688 29.34375 43.519531 29.34375 44.011719 C 29.34375 46.695312 36.375 47.726562 36.375 54.054688 C 36.375 59.03125 33.210938 62.226562 28.972656 62.226562 C 23.875 62.226562 21.265625 59.0625 21.265625 59.0625 L 22.617188 54.542969 C 22.617188 54.542969 25.289062 56.847656 27.566406 56.847656 C 28.113281 56.867188 28.648438 56.664062 29.042969 56.28125 C 29.4375 55.898438 29.660156 55.367188 29.652344 54.816406 C 29.652344 51.285156 23.878906 51.132812 23.878906 45.359375 C 23.878906 40.503906 27.378906 35.773438 34.414062 35.773438 C 37.175781 35.816406 38.5 36.582031 38.5 36.582031 Z M 38.492188 36.582031 "/>
<path style=" stroke:none;fill-rule:nonzero;fill:rgb(0%,0%,0%);fill-opacity:1;" d="M 74.027344 45.363281 C 72.878906 44.746094 72.285156 44.214844 72.285156 43.488281 C 72.285156 42.5625 73.09375 41.964844 74.402344 41.964844 C 75.375 41.988281 76.332031 42.195312 77.226562 42.582031 L 78.285156 39.367188 C 78.285156 39.367188 77.3125 38.613281 74.46875 38.613281 C 70.5 38.613281 67.742188 40.886719 67.742188 44.082031 C 67.742188 45.890625 69.019531 47.28125 70.742188 48.269531 C 72.128906 49.078125 72.617188 49.613281 72.617188 50.453125 C 72.617188 51.296875 71.933594 51.996094 70.632812 51.996094 C 68.714844 51.996094 66.90625 51.007812 66.90625 51.007812 L 65.785156 54.222656 C 65.785156 54.222656 67.460938 55.347656 70.261719 55.347656 C 74.339844 55.347656 77.269531 53.339844 77.269531 49.714844 C 77.292969 47.753906 75.816406 46.386719 74.042969 45.347656 Z M 90.300781 38.59375 C 88.292969 38.59375 86.707031 39.542969 85.492188 41.007812 L 85.425781 40.988281 L 87.167969 31.871094 L 82.628906 31.871094 L 78.21875 55.089844 L 82.757812 55.089844 L 84.28125 47.152344 C 84.875 44.152344 86.425781 42.296875 87.875 42.296875 C 88.886719 42.296875 89.285156 42.980469 89.285156 43.976562 C 89.285156 44.648438 89.21875 45.320312 89.085938 45.980469 L 87.367188 55.066406 L 91.910156 55.066406 L 93.695312 45.679688 C 93.890625 44.707031 94.003906 43.71875 94.027344 42.730469 C 94.003906 40.171875 92.660156 38.628906 90.300781 38.628906 Z M 104.277344 38.59375 C 98.808594 38.59375 95.191406 43.535156 95.191406 49.007812 C 95.191406 52.539062 97.375 55.359375 101.457031 55.359375 C 106.820312 55.359375 110.453125 50.550781 110.453125 44.945312 C 110.453125 41.683594 108.535156 38.59375 104.285156 38.59375 Z M 102.046875 51.890625 C 100.503906 51.890625 99.84375 50.570312 99.84375 48.941406 C 99.84375 46.339844 101.183594 42.085938 103.660156 42.085938 C 105.269531 42.085938 105.804688 43.476562 105.804688 44.820312 C 105.800781 47.617188 104.457031 51.890625 102.050781 51.890625 Z M 122.066406 38.59375 C 118.988281 38.59375 117.261719 41.277344 117.261719 41.277344 L 117.191406 41.277344 L 117.460938 38.863281 L 113.4375 38.863281 L 112.515625 44.882812 L 109.359375 61.507812 L 113.882812 61.507812 L 115.140625 54.78125 L 115.230469 54.78125 C 115.230469 54.78125 116.152344 55.378906 117.898438 55.378906 C 123.234375 55.378906 126.71875 49.910156 126.71875 44.382812 C 126.738281 41.339844 125.375 38.609375 122.066406 38.609375 Z M 117.722656 51.957031 C 117.039062 51.96875 116.371094 51.734375 115.847656 51.292969 L 116.597656 47.039062 C 117.132812 44.214844 118.601562 42.316406 120.191406 42.316406 C 121.578125 42.316406 121.996094 43.597656 121.996094 44.8125 C 122.003906 47.769531 120.265625 51.957031 117.730469 51.957031 Z M 133.226562 32.070312 C 132.53125 32.0625 131.863281 32.339844 131.375 32.835938 C 130.886719 33.328125 130.613281 34 130.640625 34.695312 C 130.640625 36.035156 131.5 36.96875 132.785156 36.96875 L 132.855469 36.96875 C 133.5625 36.996094 134.25 36.730469 134.753906 36.230469 C 135.261719 35.734375 135.539062 35.050781 135.519531 34.34375 C 135.519531 33.023438 134.636719 32.070312 133.25 32.070312 Z M 126.882812 55.042969 L 131.421875 55.042969 L 134.507812 38.953125 L 129.949219 38.953125 M 146.085938 38.933594 L 142.910156 38.933594 L 143.066406 38.183594 C 143.335938 36.636719 144.257812 35.25 145.75 35.25 C 146.242188 35.25 146.734375 35.324219 147.203125 35.46875 L 148.082031 31.914062 C 148.082031 31.914062 147.273438 31.519531 145.613281 31.519531 C 143.992188 31.476562 142.414062 32.019531 141.15625 33.039062 C 139.613281 34.359375 138.882812 36.257812 138.519531 38.175781 L 138.371094 38.929688 L 136.253906 38.929688 L 135.59375 42.34375 L 137.707031 42.34375 L 135.292969 55.046875 L 139.851562 55.046875 L 142.265625 42.34375 L 145.398438 42.34375 L 146.015625 38.929688 Z M 157.023438 38.953125 L 152.898438 50.023438 L 152.832031 50.023438 L 151.707031 38.953125 L 146.921875 38.953125 L 149.65625 53.726562 C 149.722656 53.980469 149.691406 54.246094 149.566406 54.476562 C 148.972656 55.574219 148.128906 56.511719 147.097656 57.214844 C 146.308594 57.757812 145.449219 58.1875 144.539062 58.492188 L 145.796875 62.347656 C 147.460938 61.902344 148.988281 61.054688 150.242188 59.871094 C 152.316406 57.929688 154.234375 54.933594 156.199219 50.851562 L 161.753906 38.945312 L 157.019531 38.945312 Z M 157.023438 38.953125 "/>
</g>
</svg>
